SplineFontDB: 3.2
FontName: AnalysisSans
FullName: Analysis Sans
FamilyName: Analysis Sans
Weight: Regular
Copyright: Copyright (c) 2024, Bastien
UComments: "2024-12-25: Created with FontForge (http://fontforge.org)"
Version: 001.000
ItalicAngle: 0
UnderlinePosition: -102
UnderlineWidth: 51
Ascent: 800
Descent: 224
InvalidEm: 0
LayerCount: 2
Layer: 0 0 "Arri+AOgA-re" 1
Layer: 1 0 "Avant" 0
XUID: [1021 760 1580941675 4706664]
FSType: 0
OS2Version: 0
OS2_WeightWidthSlopeOnly: 0
OS2_UseTypoMetrics: 1
CreationTime: 1735138560
ModificationTime: 1736377346
PfmFamily: 17
TTFWeight: 400
TTFWidth: 5
LineGap: 192
VLineGap: 0
OS2TypoAscent: 800
OS2TypoAOffset: 0
OS2TypoDescent: -224
OS2TypoDOffset: 0
OS2TypoLinegap: 192
OS2WinAscent: 800
OS2WinAOffset: 0
OS2WinDescent: 224
OS2WinDOffset: 0
HheadAscent: 800
HheadAOffset: 0
HheadDescent: 224
HheadDOffset: 0
OS2Vendor: 'PfEd'
Lookup: 258 0 0 "AnalysisSans-Kern Latin" { "AnalysisSans-Kern Latin-Latin" [153,0,2] } ['kern' ('DFLT' <'dflt' > 'latn' <'dflt' > ) ]
MarkAttachClasses: 1
DEI: 91125
KernClass2: 22 16 "AnalysisSans-Kern Latin-Latin"
 54 A L Z Agrave Aacute Acircumflex Atilde Adieresis Aring
 46 O Q Ograve Oacute Ocircumflex Otilde Odieresis
 1 D
 3 F P
 39 J U Ugrave Uacute Ucircumflex Udieresis
 3 K R
 1 S
 14 T V W Y Yacute
 50 a agrave aacute acircumflex atilde adieresis aring
 3 b p
 43 c d e q egrave eacute ecircumflex edieresis
 3 f t
 50 h m n u ntilde ugrave uacute ucircumflex udieresis
 1 g
 26 k v w x y yacute ydieresis
 44 o ograve oacute ocircumflex otilde odieresis
 1 r
 3 s z
 9 ampersand
 3 one
 1 C
 50 A Agrave Aacute Acircumflex Atilde Adieresis Aring
 48 C O Q Ograve Oacute Ocircumflex Otilde Odieresis
 1 S
 14 T V W Y Yacute
 50 a agrave aacute acircumflex atilde adieresis aring
 20 b h m n p r s ntilde
 45 c d e q u egrave eacute ecircumflex edieresis
 1 g
 3 f t
 44 o ograve oacute ocircumflex otilde odieresis
 1 z
 24 v w x y yacute ydieresis

StartChar: A
Encoding: 65 65 0
Width: 639
VWidth: 1048
Flags: W
HStem: 0 21G<40 118.902 524.777 603> 184 62<167 508> 687 20G<280.013 387.28>
VStem: 531 72<0 22.8278>
AnchorPoint: "AccentCenter" 333 880 basechar 0
LayerCount: 2
Fore
SplineSet
167 246 m 1
 508 246 l 1
 508 184 l 1
 167 184 l 1
 167 246 l 1
381 707 m 5
 603 0 l 1
 531 0 l 1
 311 707 l 5
 381 707 l 5
287 707 m 5
 356 707 l 5
 112 0 l 1
 40 0 l 1
 287 707 l 5
EndSplineSet
Validated: 5
Colour: ff0000
EndChar

StartChar: B
Encoding: 66 66 1
Width: 633
VWidth: 1048
Flags: W
HStem: 0 61<172 442.347> 347 62<172 422.235> 646 61<172 423.044>
VStem: 100 72<61 347 409 646> 470 74<454.484 604.431> 501 74<120.479 279.444>
LayerCount: 2
Fore
SplineSet
172 646 m 1xf8
 172 409 l 1
 337 409 l 2
 420 409 470 447 470 537 c 0
 470 619 408 646 331 646 c 2
 172 646 l 1xf8
172 347 m 1
 172 61 l 1
 354 61 l 2
 437 61 501 105 501 201 c 4xf4
 501 301 424 347 331 347 c 2
 172 347 l 1
100 0 m 1
 100 707 l 1
 333 707 l 2
 457 707 544 642 544 536 c 0xf8
 544 441 483 395 434 375 c 1
 522 354 575 293 575 196 c 4
 575 56 470 0 354 0 c 2
 100 0 l 1
EndSplineSet
Validated: 1
EndChar

StartChar: C
Encoding: 67 67 2
Width: 631
VWidth: 1048
Flags: W
HStem: -8 61<251.484 458.852> 653 62<260.764 459.504>
VStem: 56 72<197.644 496.179>
LayerCount: 2
Fore
SplineSet
355 -8 m 1
 175 -8 56 121 56 354 c 5
 56 597 205 715 361 715 c 1
 436 715 503 697 567 623 c 1
 515 585 l 1
 473 631 434 653 359 653 c 1
 235 653 128 565 128 354 c 5
 128 125 225 53 355 53 c 1
 428 53 482 75 527 131 c 1
 575 91 l 1
 519 29 449 -8 355 -8 c 1
EndSplineSet
Validated: 1
EndChar

StartChar: D
Encoding: 68 68 3
Width: 675
VWidth: 1048
Flags: W
HStem: 1 61<144 384.942> 646 61<150 387.459>
VStem: 144 28<1 62 646 707> 530 73<216.057 492.809>
LayerCount: 2
Fore
SplineSet
150 707 m 1
 278 707 l 1
 492 707 603 566 603 361 c 4
 603 138 491 1 274 1 c 1
 144 1 l 1
 144 62 l 1
 276 62 l 1
 416 62 530 138 530 361 c 4
 530 566 415 646 278 646 c 1
 150 646 l 1
 150 707 l 1
100 707 m 1
 172 707 l 1
 172 1 l 1
 100 1 l 1
 100 707 l 1
EndSplineSet
Validated: 5
EndChar

StartChar: E
Encoding: 69 69 4
Width: 595
VWidth: 1048
Flags: W
HStem: 0 61<172 539> 350 66<171 461> 646 61<172 539>
VStem: 171 1<350 416>
AnchorPoint: "AccentCenter" 336 880 basechar 0
LayerCount: 2
Fore
SplineSet
171 416 m 1
 461 416 l 1
 461 350 l 1
 171 350 l 1
 171 416 l 1
172 61 m 1
 539 61 l 1
 539 0 l 1
 172 0 l 1
 172 61 l 1
172 707 m 1
 539 707 l 1
 539 646 l 1
 172 646 l 1
 172 707 l 1
100 707 m 1
 172 707 l 1
 172 0 l 1
 100 0 l 1
 100 707 l 1
EndSplineSet
Validated: 5
EndChar

StartChar: F
Encoding: 70 70 5
Width: 580
VWidth: 1048
Flags: W
HStem: 0 21G<100 173> 354 66<157 470> 646 61<137 548>
VStem: 100 73<0 354 420 646> 137 36<646 707> 157 16<354 420>
LayerCount: 2
Fore
SplineSet
157 420 m 1xe4
 470 420 l 1
 470 354 l 1
 157 354 l 1
 157 420 l 1xe4
137 707 m 5xe8
 548 707 l 5
 548 646 l 5
 137 646 l 5
 137 707 l 5xe8
100 707 m 5xf0
 173 707 l 5xe8
 173 0 l 1
 100 0 l 1
 100 707 l 5xf0
EndSplineSet
Validated: 5
Colour: ff0000
EndChar

StartChar: G
Encoding: 71 71 6
Width: 674
VWidth: 1048
Flags: W
HStem: -8 61<258.27 453.52> 340 62<370 535> 645 62<262.215 459.676>
VStem: 64 74<199.777 492.943> 535 75<120.21 340>
LayerCount: 2
Fore
SplineSet
610 134 m 1
 562 60 492 -8 350 -8 c 1
 222 -8 64 68 64 358 c 1
 64 592 217 707 352 707 c 1
 448 707 512 683 574 611 c 1
 524 568 l 1
 484 624 424 645 352 645 c 1
 239 645 139.954751131 552 138 358 c 1
 138 120 244 53 352 53 c 1
 442 53 512 98 535 152 c 1
 535 340 l 1
 370 340 l 1
 370 402 l 1
 610 402 l 1
 610 134 l 1
EndSplineSet
EndChar

StartChar: H
Encoding: 72 72 7
Width: 683
VWidth: 1048
Flags: W
HStem: 0 21G<100 172 511 583> 354 66<137 546> 687 20G<100 172 511 583>
VStem: 100 72<0 354 420 707> 137 35<354 420> 511 72<0 354 420 707> 511 35<354 420>
LayerCount: 2
Fore
SplineSet
137 420 m 1xea
 546 420 l 1
 546 354 l 1
 137 354 l 1
 137 420 l 1xea
511 707 m 5xe4
 583 707 l 5
 583 0 l 1
 511 0 l 1
 511 707 l 5xe4
100 707 m 5xf0
 172 707 l 5
 172 0 l 1
 100 0 l 1
 100 707 l 5xf0
EndSplineSet
Validated: 5
EndChar

StartChar: I
Encoding: 73 73 8
Width: 232
VWidth: 1048
Flags: W
HStem: 0 21G<80 152> 687 20G<80 152>
VStem: 80 72<0 707>
AnchorPoint: "AccentCenter" 116 880 basechar 0
LayerCount: 2
Fore
SplineSet
80 707 m 5
 152 707 l 5
 152 0 l 1
 80 0 l 1
 80 707 l 5
EndSplineSet
Validated: 1
EndChar

StartChar: J
Encoding: 74 74 9
Width: 461
VWidth: 1048
Flags: W
HStem: -8 61<74.1565 252.192> 687 20G<309 381>
VStem: 309 72<118.471 707>
LayerCount: 2
Fore
SplineSet
381 707 m 5
 381 234 l 1
 381 76 295 -8 170 -8 c 1
 109 -8 80 0 32 32 c 1
 63 82 l 1
 101 57 127 53 174 53 c 3
 270 53 309 118 309 231 c 1
 309 707 l 5
 381 707 l 5
EndSplineSet
EndChar

StartChar: K
Encoding: 75 75 10
Width: 585
VWidth: 1048
Flags: W
HStem: 0 21G<80 152 450.654 561> 687 20G<80 152 405.466 518>
VStem: 80 72<0 253 355 707> 131 21<253 355>
LayerCount: 2
Fore
SplineSet
238 407 m 1xc0
 287 375 l 1
 561 0 l 1
 465 0 l 1
 191 382 l 1
 238 407 l 1xc0
131 253 m 1xd0
 131 355 l 1
 422 707 l 5
 518 707 l 5
 131 253 l 1xd0
80 707 m 5xe0
 152 707 l 5
 152 0 l 1
 80 0 l 1
 80 707 l 5xe0
EndSplineSet
Colour: ff0000
EndChar

StartChar: L
Encoding: 76 76 11
Width: 558
VWidth: 1048
Flags: W
HStem: 0 61<147 498> 687 20G<100 172>
VStem: 100 72<61 707> 147 25<0 61>
LayerCount: 2
Fore
SplineSet
147 61 m 1xd0
 498 61 l 1
 498 0 l 1
 147 0 l 1
 147 61 l 1xd0
100 707 m 5xe0
 172 707 l 5xe0
 172 0 l 1xd0
 100 0 l 1
 100 707 l 5xe0
EndSplineSet
Validated: 5
EndChar

StartChar: M
Encoding: 77 77 12
Width: 725
VWidth: 1048
Flags: W
HStem: 0 21G<80 152 573 645> 687 20G<80 172.91 552.396 645>
VStem: 80 72<0 578> 146 6<578 707> 573 72<0 578> 573 7<578 707>
LayerCount: 2
Fore
SplineSet
580 707 m 17xc4
 580 578 l 1
 410 184 l 1
 336 184 l 1
 561 707 l 1
 580 707 l 17xc4
146 707 m 25xd0
 164 707 l 1
 397 184 l 1
 324 184 l 1
 146 578 l 1
 146 707 l 25xd0
573 707 m 1xc4
 645 707 l 1
 645 0 l 1
 573 0 l 1xc8
 573 707 l 1xc4
80 707 m 1xe0
 152 707 l 1xd0
 152 0 l 1
 80 0 l 1
 80 707 l 1xe0
EndSplineSet
EndChar

StartChar: N
Encoding: 78 78 13
Width: 651
VWidth: 1048
Flags: W
HStem: 0 21G<80 152 477.514 571> 687 20G<80 173.616 499 571>
VStem: 80 72<0 599> 145 7<599 707> 499 72<113 707> 499 8<0 113>
LayerCount: 2
Fore
SplineSet
145 707 m 1xd4
 162 707 l 1
 507 113 l 1
 507 0 l 1
 489 0 l 1
 145 599 l 1
 145 707 l 1xd4
499 707 m 1xc8
 571 707 l 1
 571 0 l 1xc8
 499 0 l 1xc4
 499 707 l 1xc8
80 707 m 1xe0
 152 707 l 1xd0
 152 0 l 1
 80 0 l 1
 80 707 l 1xe0
EndSplineSet
EndChar

StartChar: O
Encoding: 79 79 14
Width: 710
VWidth: 1048
Flags: W
HStem: -8 61<261.107 453.45> 653 62<260.283 454.626>
VStem: 64 72<203.006 506.943> 573 73<198.366 507.258>
AnchorPoint: "AccentCenter" 359 880 basechar 0
LayerCount: 2
Fore
SplineSet
136 354 m 0
 136 136 234 53 358 53 c 0
 482 53 573 136 573 354 c 0
 573 572 482 653 358 653 c 4
 234 653 136 572 136 354 c 0
64 354 m 0
 64 626 218 715 358 715 c 4
 498 715 646 624 646 357 c 0
 646 89 508 -8 358 -8 c 0
 206 -8 64 93 64 354 c 0
EndSplineSet
Validated: 1
EndChar

StartChar: P
Encoding: 80 80 15
Width: 625
VWidth: 1048
Flags: W
HStem: 0 21G<100 167> 263 61<165 405.606> 646 61<161 413.45>
VStem: 100 67<0 263 324 646> 161 6<646 707> 165 2<263 324> 489 72<406.174 570.609>
LayerCount: 2
Fore
SplineSet
161 707 m 5xea
 161 707 265 707 339 707 c 4
 470 707 561 609 561 491 c 4
 561 364 464 263 321 263 c 13
 165 263 l 5
 165 324 l 5xe6
 321 324 l 21
 424 324 489 401 489 491 c 4
 489 577 423 646 339 646 c 13
 161 646 l 5
 161 707 l 5xea
100 707 m 5xf2
 167 707 l 5xea
 167 0 l 1
 100 0 l 1
 100 707 l 5xf2
EndSplineSet
Validated: 5
Colour: ff0000
EndChar

StartChar: Q
Encoding: 81 81 16
Width: 710
VWidth: 1048
Flags: W
HStem: -184 60<458.491 601.817> -8 8<344 408> 653 62<260.283 454.722>
VStem: 64 72<203.006 506.943> 574 72<198.366 507.258>
AnchorPoint: "AccentCenter" 370 880 basechar 0
LayerCount: 2
Fore
SplineSet
136 354 m 0
 136 136 234 53 358 53 c 0
 482 53 574 136 574 354 c 0
 574 572 482 653 358 653 c 0
 234 653 136 572 136 354 c 0
64 354 m 0
 64 626 218 715 358 715 c 0
 498 715 646 624 646 357 c 0
 646 89 508 -8 358 -8 c 0
 206 -8 64 93 64 354 c 0
408 0 m 25
 408 0 415 -124 526 -124 c 0
 568 -124 598 -104 598 -104 c 25
 620 -152 l 1
 620 -152 586 -184 518 -184 c 0
 403 -184 344 -80 344 0 c 9
 408 0 l 25
EndSplineSet
Validated: 5
EndChar

StartChar: R
Encoding: 82 82 17
Width: 619
VWidth: 1048
Flags: W
HStem: 0 21G<100 172 476.347 571> 283 61<163 395.651> 283 11<304 352> 646 61<159 402.815>
VStem: 100 72<0 283 344 646> 163 9<283 344 646 707> 472 74<416.648 576.96>
LayerCount: 2
Fore
SplineSet
303 294 m 5xb2
 352 294 l 5
 417 245 l 5
 571 0 l 1
 489 0 l 1
 303 294 l 5xb2
159 707 m 5
 159 707 249 707 323 707 c 4
 454 707 546 617 546 499 c 4
 546 372 447 283 304 283 c 13
 163 283 l 5
 163 344 l 5
 304 344 l 21xd6
 407 344 472 409 472 499 c 4
 472 585 407 646 323 646 c 13
 159 646 l 5
 159 707 l 5
100 707 m 5x9a
 172 707 l 5x96
 172 0 l 1
 100 0 l 1
 100 707 l 5x9a
EndSplineSet
Validated: 5
Colour: ff0000
EndChar

StartChar: S
Encoding: 83 83 18
Width: 578
VWidth: 1048
Flags: W
HStem: -8 61<193.117 392.807> 653 62<205.826 389.413>
VStem: 86 71<461.266 606.246> 449 73<102.854 250.322>
LayerCount: 2
Fore
SplineSet
303 715 m 1
 396 715 462 676 512 597 c 5
 449 568 l 5
 426 621 369 653 298 653 c 1
 202 653 157 605 157 543 c 1
 157 453 197 425 318 385 c 0
 445 343 522 291 522 171 c 1
 522 48 414 -8 288 -8 c 1
 178 -8 92 46 56 123 c 1
 122 154 l 1
 144 93 206 53 288 53 c 1
 389 53 449 93 449 170 c 1
 449 278 379 297 255 338 c 0
 145 375 86 432 86 542 c 1
 86 647 176 715 303 715 c 1
EndSplineSet
EndChar

StartChar: T
Encoding: 84 84 19
Width: 595
VWidth: 1048
Flags: W
HStem: 0 21G<255 327> 647 60<34 549>
VStem: 255 72<0 707>
LayerCount: 2
Fore
SplineSet
34 707 m 5
 549 707 l 5
 549 647 l 5
 34 647 l 5
 34 707 l 5
255 707 m 5
 327 707 l 5
 327 0 l 1
 255 0 l 1
 255 707 l 5
EndSplineSet
Validated: 5
Colour: ff0000
EndChar

StartChar: U
Encoding: 85 85 20
Width: 707
VWidth: 1048
Flags: W
HStem: -8 61<264.707 442.31> 687 20G<100 172 535 607>
VStem: 100 72<156.218 707> 535 72<156.218 707>
AnchorPoint: "AccentCenter" 335 880 basechar 0
LayerCount: 2
Fore
SplineSet
100 707 m 1
 172 707 l 1
 172 279 l 1
 172 109 262 53 356 53 c 0
 444 53 535 109 535 279 c 1
 535 707 l 1
 607 707 l 1
 607 277 l 1
 607 77 481 -8 352 -8 c 0
 227 -8 100 77 100 279 c 1
 100 707 l 1
EndSplineSet
Validated: 1
EndChar

StartChar: V
Encoding: 86 86 21
Width: 639
VWidth: 1048
Flags: W
HStem: 0 21G<265.267 372.761> 687 20G<34 121.393 517.55 605>
LayerCount: 2
Fore
SplineSet
296 0 m 1
 524 707 l 5
 605 707 l 5
 366 0 l 1
 296 0 l 1
34 707 m 5
 115 707 l 5
 341 0 l 1
 272 0 l 1
 34 707 l 5
EndSplineSet
Validated: 5
Colour: ff0000
EndChar

StartChar: W
Encoding: 87 87 22
Width: 810
VWidth: 1048
Flags: W
HStem: 0 21G<192.615 287.719 516.406 607.385> 687 20G<42 120.045 679.955 758>
VStem: 42 74<674.305 707> 684 74<674.305 707>
LayerCount: 2
Fore
SplineSet
585 0 m 1
 521 0 l 1
 374 640 l 1
 442 640 l 1
 585 0 l 1
758 707 m 1
 603 0 l 1
 541 0 l 1
 684 707 l 1
 758 707 l 1
215 0 m 1
 366 640 l 1
 434 640 l 1
 283 0 l 1
 215 0 l 1
42 707 m 1
 116 707 l 1
 259 0 l 1
 197 0 l 1
 42 707 l 1
EndSplineSet
Validated: 5
Colour: ff0000
EndChar

StartChar: X
Encoding: 88 88 23
Width: 612
VWidth: 1048
Flags: W
HStem: 0 21G<48 149.126 461.94 564> 687 20G<48 149.2 461.867 564>
LayerCount: 2
Fore
SplineSet
48 707 m 1
 138 707 l 1
 306 407 l 5
 473 707 l 1
 564 707 l 1
 351 354 l 5
 564 0 l 1
 473 0 l 1
 306 302 l 5
 138 0 l 1
 48 0 l 1
 261 354 l 5
 48 707 l 1
EndSplineSet
Validated: 1
EndChar

StartChar: Y
Encoding: 89 89 24
Width: 627
VWidth: 1048
Flags: W
HStem: 0 21G<279 352> 295 12<284 347> 687 20G<40 137.68 489.515 587>
VStem: 279 73<0 307>
AnchorPoint: "AccentCenter" 312 880 basechar 0
LayerCount: 2
Fore
SplineSet
279 307 m 1
 352 307 l 1
 352 0 l 1
 279 0 l 1
 279 307 l 1
284 295 m 1
 500 707 l 5
 587 707 l 5
 347 295 l 1
 284 295 l 1
40 707 m 5
 127 707 l 5
 347 295 l 1
 284 295 l 1
 40 707 l 5
EndSplineSet
Validated: 5
Colour: ff0000
EndChar

StartChar: Z
Encoding: 90 90 25
Width: 675
VWidth: 1048
Flags: W
HStem: 0 61<182 575> 646 61<100 575>
LayerCount: 2
Fore
SplineSet
493 646 m 5
 575 646 l 5
 182 61 l 1
 100 61 l 1
 493 646 l 5
100 61 m 1
 575 61 l 1
 575 0 l 1
 100 0 l 1
 100 61 l 1
100 707 m 5
 575 707 l 5
 575 646 l 5
 100 646 l 5
 100 707 l 5
EndSplineSet
Validated: 5
EndChar

StartChar: bracketleft
Encoding: 91 91 26
Width: 458
VWidth: 1048
Flags: W
HStem: -66 62<110 357> 757 62<110 357>
VStem: 110 41<-66 -4 757 819>
LayerCount: 2
Fore
SplineSet
110 757 m 1
 110 819 l 1
 357 819 l 1
 357 757 l 1
 110 757 l 1
110 -66 m 1
 110 -4 l 1
 357 -4 l 1
 357 -66 l 1
 110 -66 l 1
77 819 m 1
 151 819 l 1
 151 -66 l 1
 77 -66 l 1
 77 819 l 1
EndSplineSet
Validated: 5
EndChar

StartChar: backslash
Encoding: 92 92 27
Width: 624
VWidth: 1048
Flags: W
LayerCount: 2
Fore
SplineSet
77 795 m 5
 144 819 l 5
 523 -38 l 5
 456 -62 l 5
 77 795 l 5
EndSplineSet
Validated: 1
EndChar

StartChar: bracketright
Encoding: 93 93 28
Width: 458
VWidth: 1048
Flags: W
HStem: -66 62<77 325> 757 62<77 325>
VStem: 284 41<-66 -4 757 819>
LayerCount: 2
Fore
SplineSet
325 757 m 1
 77 757 l 1
 77 819 l 1
 325 819 l 1
 325 757 l 1
325 -66 m 1
 77 -66 l 1
 77 -4 l 1
 325 -4 l 1
 325 -66 l 1
357 819 m 1
 357 -66 l 1
 284 -66 l 1
 284 819 l 1
 357 819 l 1
EndSplineSet
Validated: 5
EndChar

StartChar: asciicircum
Encoding: 94 94 29
Width: 505
VWidth: 1048
Flags: W
HStem: 667 185
VStem: 77 327
LayerCount: 2
Fore
SplineSet
77 716 m 25
 208 852 l 1
 273 852 l 25
 404 716 l 25
 364 667 l 25
 241 786 l 25
 118 667 l 25
 77 716 l 25
EndSplineSet
Validated: 1
EndChar

StartChar: underscore
Encoding: 95 95 30
Width: 579
VWidth: 1048
Flags: W
HStem: -66 66<95 496>
LayerCount: 2
Fore
SplineSet
95 0 m 5
 496 0 l 5
 496 -66 l 5
 95 -66 l 5
 95 0 l 5
EndSplineSet
Validated: 1
EndChar

StartChar: grave
Encoding: 96 96 31
Width: 424
VWidth: 1048
Flags: W
HStem: 765 185
VStem: 77 247
LayerCount: 2
Fore
SplineSet
290 765 m 1
 77 889 l 1
 120 950 l 1
 324 814 l 1
 290 765 l 1
EndSplineSet
Validated: 1
EndChar

StartChar: a
Encoding: 97 97 32
Width: 550
Flags: W
HStem: -8 60<166.586 332.123> 246 61<173.124 394> 466 61<175.083 347.645>
VStem: 63 73<81.6253 212.783> 394 73<112.617 246 307 420.883>
AnchorPoint: "AccentCenter" 271 686 basechar 0
AnchorPoint: "Ring" 275 686 basechar 0
LayerCount: 2
Fore
SplineSet
136 147 m 0
 136 84 172 52 247 52 c 0
 334 52 394 107 394 190 c 2
 394 246 l 1
 295 246 l 2
 187 246 136 226 136 147 c 0
405 77 m 1
 375 15 310 -8 243 -8 c 0
 132 -8 63 52 63 147 c 0
 63 252 141 307 281 307 c 2
 394 307 l 1
 394 346 l 2
 394 430 340 466 263 466 c 0
 203 466 162 446 135 404 c 1
 91 440 l 1
 124 494 186 527 265 527 c 0
 374 527 467 474 467 332 c 2
 467 122 l 1
 467 92 471 61 500 36 c 1
 462 -8 l 1
 432 16 412 40 405 77 c 1
EndSplineSet
EndChar

StartChar: b
Encoding: 98 98 33
Width: 645
VWidth: 1048
Flags: W
HStem: -8 61<246.741 417.688> 0 21G<108 170.965> 466 61<244.394 416.733>
VStem: 108 74<32.9661 57 188 724> 108 57<0 24.0339> 499 74<144.048 375.461>
LayerCount: 2
Fore
SplineSet
155 421 m 5xb4
 171 462 224 527 337 527 c 5
 464 527 573 440 573 269 c 5
 573 78 461 -8 337 -8 c 5
 222 -8 171 51 151 98 c 5
 182 188 l 5
 182 110 245 53 333 53 c 5
 434 53 499 120 499 266 c 5
 499 399 427 466 333 466 c 5
 247 466 182 417 182 337 c 5
 155 421 l 5xb4
108 724 m 5
 182 724 l 5
 182 57 l 5x74
 165 0 l 5
 108 0 l 5x6c
 108 724 l 5
EndSplineSet
Validated: 5
EndChar

StartChar: c
Encoding: 99 99 34
Width: 565
VWidth: 1048
Flags: W
HStem: -8 60<228.252 400.016> 467 60<229.113 398.573>
VStem: 68 72<146.964 365.527>
LayerCount: 2
Fore
SplineSet
311 527 m 1
 403 527 480 485 516 409 c 1
 460.221679688 381 l 1
 432 435 377 467 313 467 c 1
 216 467 140 394 140 252 c 1
 140 119 221 52 311 52 c 1
 372 52 435 80 466 139.432617188 c 1
 522 114 l 5
 482 38 413 -8 309 -8 c 1
 168 -8 68 101 68 251 c 1
 68 422 179 527 311 527 c 1
EndSplineSet
EndChar

StartChar: d
Encoding: 100 100 35
Width: 645
VWidth: 1048
Flags: W
HStem: -8 61<226.874 397.759> 0 21G<473.386 537> 466 61<228.267 400.48>
VStem: 72 74<144.048 375.461> 463 74<31.464 57 188 724> 479 58<0 25.536>
LayerCount: 2
Fore
SplineSet
489 421 m 1xb8
 463 337 l 1
 463 417 398 466 312 466 c 1
 218 466 146 399 146 266 c 1
 146 120 211 53 312 53 c 1
 400 53 463 110 463 188 c 1
 493 98 l 1
 473 51 422 -8 307 -8 c 1
 183 -8 72 78 72 269 c 1
 72 440 181 527 308 527 c 1
 421 527 473 462 489 421 c 1xb8
537 724 m 1
 537 0 l 1
 479 0 l 1x74
 463 57 l 1
 463 724 l 1
 537 724 l 1
EndSplineSet
Validated: 5
EndChar

StartChar: e
Encoding: 101 101 36
Width: 581
VWidth: 1048
Flags: W
HStem: -8 57<216.831 390.005> 238 62<138 447> 470 57<212.447 379.066>
VStem: 64 74<139.722 238 300 382.465> 447 72<300 395.622>
AnchorPoint: "AccentCenter" 304 686 basechar 0
LayerCount: 2
Fore
SplineSet
300 470 m 1
 186 470 138 392 138 300 c 1
 447 300 l 1
 447 406 387 470 300 470 c 1
300 527 m 0
 431 527 519 436 519 280 c 1
 492 238 l 1
 138 238 l 1
 138 133 194 49 298 49 c 0
 368 49 418.66015625 78.8505859375 459.823242188 136.534179688 c 5
 512 97 l 5
 456.533203125 22.0732421875 394 -8 300 -8 c 0
 161 -8 64 98 64 261 c 0
 64 422 155 527 300 527 c 0
EndSplineSet
Validated: 1
EndChar

StartChar: f
Encoding: 102 102 37
Width: 416
VWidth: 1048
Flags: W
HStem: 0 21G<132 206> 458 61<87.2 378> 458 45<32 76.8> 674 58<250.957 384.383>
VStem: 132 74<0 626.559>
LayerCount: 2
Fore
SplineSet
317 674 m 1x98
 234 674 206 610 206 527 c 1
 206 0 l 25
 132 0 l 25
 132 520 l 1
 132 652 194 732 313 732 c 1
 341 732 362 728 392 718 c 1
 382 664 l 1
 359 672 342 674 317 674 c 1x98
32 503 m 1xb8
 132 519 l 1
 378 519 l 1
 378 458 l 1
 266 458 l 1xd8
 32 458 l 1
 32 503 l 1xb8
EndSplineSet
Validated: 5
EndChar

StartChar: g
Encoding: 103 103 38
Width: 547
VWidth: 1048
Flags: W
HStem: -192 57<144.252 384.523> 12 62<135 204 208 412.094> 25 49<109 202> 467 60<171.701 329.267 439.908 529>
VStem: 26 79<-100.702 -7.57165> 61 66<86.9209 156.601 289.211 422.09> 372 73<284.699 426.14> 429 74<-98.1342 -4.70333>
LayerCount: 2
Fore
SplineSet
386 472 m 1x90
 427 511 461 527 529 527 c 1
 529 467 l 1
 481 467 447 460 425 429 c 1
 386 472 l 1x90
58 362 m 0
 58 463 136 527 249 527 c 0
 365 527 445 463 445 362 c 0x92
 445 253 363 188 247 188 c 0
 125 188 58 264 58 362 c 0
131 358 m 0
 131 282 172 245 253 245 c 0
 327 245 372 282 372 358 c 0
 372 424 327 467 253 467 c 0
 172 467 131 424 131 358 c 0
338 74 m 1xd9
 435 74 503 22 503 -55 c 0
 503 -146 400 -192 265 -192 c 0
 96 -192 26 -129 26 -53 c 1
 26 20 98 74 188 74 c 1
 338 74 l 1xd9
343 12 m 1
 204 12 l 1
 135 12 105 -14 105 -53 c 1
 105 -103 153 -135 267 -135 c 0
 363 -135 429 -104 429 -54 c 0
 429 -1 389 12 343 12 c 1
271 189 m 1
 179 182 127 160 127 119 c 0
 127 88 166 74 208 74 c 0xd4
 202 25 l 0
 109 25 61 65 61 118 c 0xb4
 61 188 153 218 251 229 c 1
 271 189 l 1
EndSplineSet
Validated: 5
Colour: ff0000
EndChar

StartChar: h
Encoding: 104 104 39
Width: 573
VWidth: 1048
Flags: W
HStem: 0 21G<80 154 412 485> 466 61<208.652 365.553>
VStem: 80 74<0 724> 412 73<0 416.621>
LayerCount: 2
Fore
SplineSet
81 724 m 1
 154 724 l 1
 154 0 l 1
 80 0 l 1
 81 724 l 1
137 423 m 1
 146 459 191 527 300 527 c 0
 430 527 485 435 485 326 c 1
 485 0 l 1
 412 0 l 1
 412 324 l 2
 412 414 374 466 291 466 c 0
 195 466 154 402 154 330 c 1
 137 423 l 1
EndSplineSet
EndChar

StartChar: i
Encoding: 105 105 40
Width: 264
VWidth: 1048
Flags: W
HStem: 0 21G<94 168> 499 20G<94 168> 650 105<89.5153 174.485>
VStem: 80 104<659.515 745.146> 94 74<0 519>
LayerCount: 2
Fore
SplineSet
94 0 m 1xe8
 94 519 l 1
 168 519 l 1
 168 0 l 1
 94 0 l 1xe8
80 702 m 0xf0
 80 731 103 755 132 755 c 0
 161 755 184 731 184 702 c 0
 184 673 161 650 132 650 c 0
 103 650 80 673 80 702 c 0xf0
EndSplineSet
Validated: 1
EndChar

StartChar: j
Encoding: 106 106 41
Width: 254
VWidth: 1048
Flags: W
HStem: 499 20G<89 163> 650 105<84.5153 170.146>
VStem: 75 105<659.515 745.146> 89 74<-75.1158 519>
LayerCount: 2
Fore
SplineSet
75 702 m 0xe0
 75 731 98 755 127 755 c 0
 156 755 180 731 180 702 c 0
 180 673 156 650 127 650 c 0
 98 650 75 673 75 702 c 0xe0
-11 -141 m 5
 51 -119 89 -72 89 45 c 1
 89 519 l 1
 163 519 l 1
 163 45 l 5xd0
 163 -94 95 -165 17 -192 c 5
 -11 -141 l 5
EndSplineSet
Validated: 1
Colour: ff0000
EndChar

StartChar: k
Encoding: 107 107 42
Width: 530
VWidth: 1048
Flags: W
HStem: 0 21G<80 154 383.103 491> 499 20G<369.049 488>
VStem: 80 74<0 180 252 724>
LayerCount: 2
Fore
SplineSet
240 276 m 1
 289 245 l 1
 491 0 l 5
 399 0 l 21
 182 273 l 1
 240 276 l 1
135 252 m 1
 388 519 l 5
 488 519 l 5
 152 180 l 1
 135 252 l 1
80 724 m 1
 154 724 l 1
 154 0 l 1
 80 0 l 1
 80 724 l 1
EndSplineSet
Colour: ff0000
EndChar

StartChar: l
Encoding: 108 108 43
Width: 250
VWidth: 1048
Flags: W
HStem: 0 21G<88 162> 748 20G<88 162>
VStem: 88 74<0 768>
LayerCount: 2
Fore
SplineSet
88 0 m 1
 88 768 l 1
 162 768 l 1
 162 0 l 1
 88 0 l 1
EndSplineSet
Validated: 1
EndChar

StartChar: m
Encoding: 109 109 44
Width: 831
VWidth: 1048
Flags: W
HStem: 0 21G<80 153 377 450 678 751> 466 61<212.705 348.842 501.594 639.986> 499 20G<80 140.596>
VStem: 80 73<0 340 430 469.872> 80 57<479.128 519> 377 73<0 421.265> 678 73<0 428.937>
LayerCount: 2
Fore
SplineSet
424 432 m 1xc6
 442 475 486 527 586 527 c 1
 679 527 751 459 751 354 c 1
 751 0 l 1
 678 0 l 1
 678 353 l 1
 678 430 631 466 576 466 c 1
 497 466 451 407 450 352 c 1
 424 432 l 1xc6
143 434 m 1
 154 467 192 527 293 527 c 1
 364 527 418 486 438 430 c 1
 450 430 l 1
 450 0 l 1
 377 0 l 1
 377 369 l 1
 377 427 344 466 289 466 c 1
 201 466 153 398 153 340 c 1xd6
 143 434 l 1
80 519 m 1xae
 137 519 l 1xae
 153 430 l 1
 153 0 l 1
 80 0 l 1xb6
 80 519 l 1xae
EndSplineSet
EndChar

StartChar: n
Encoding: 110 110 45
Width: 570
VWidth: 1048
Flags: W
HStem: 0 21G<80 153 424 498> 466 61<221.418 377.599> 499 20G<80 141.638>
VStem: 80 73<0 313 450 480.912> 80 57<488.088 519> 424 74<0 416.621>
AnchorPoint: "AccentCenter" 282 686 basechar 0
LayerCount: 2
Fore
SplineSet
80 519 m 5xac
 137 519 l 5xac
 153 450 l 5
 153 0 l 5
 80 0 l 5xb4
 80 519 l 5xac
135 413 m 5
 147 465 220 527 312 527 c 4
 442 527 498 435 498 326 c 5
 498 0 l 5
 424 0 l 5
 424 324 l 6
 424 414 386 466 303 466 c 4
 203 466 153 389 153 313 c 5xd4
 135 413 l 5
EndSplineSet
Validated: 5
EndChar

StartChar: o
Encoding: 111 111 46
Width: 636
VWidth: 1048
Flags: W
HStem: -8 61<233.916 400.636> 466 61<236.726 395.951>
VStem: 72 74<149.131 366.883> 490 74<149.131 366.883>
AnchorPoint: "AccentCenter" 302 686 basechar 0
LayerCount: 2
Fore
SplineSet
146 258 m 0
 146 121 224 53 316 53 c 0
 408 53 490 121 490 258 c 0
 490 395 408 466 316 466 c 0
 224 466 146 395 146 258 c 0
72 261 m 0
 72 428 181 527 316 527 c 0
 451 527 564 428 564 261 c 0
 564 94 451 -8 316 -8 c 0
 190 -8 72 94 72 261 c 0
EndSplineSet
EndChar

StartChar: p
Encoding: 112 112 47
Width: 615
VWidth: 1048
Flags: W
HStem: -8 61<213.406 383.628> 466 61<218.582 392.276>
VStem: 80 73<462 487.536> 80 57<493.464 519> 471 73<148.478 376.539>
LayerCount: 2
Fore
SplineSet
127 98 m 1xe8
 143 57 192 -8 305 -8 c 1
 432 -8 544 87 544 258 c 1
 544 449 433 527 309 527 c 1
 194 527 143 468 123 421 c 1
 153 331 l 1
 153 409 217 466 305 466 c 1
 406 466 471 403 471 257 c 1
 471 124 395 53 301 53 c 1
 215 53 153 102 153 182 c 1
 127 98 l 1xe8
80 -197 m 1xd8
 153 -197 l 1
 153 462 l 1xe8
 137 519 l 1
 80 519 l 1
 80 -197 l 1xd8
EndSplineSet
EndChar

StartChar: q
Encoding: 113 113 48
Width: 616
VWidth: 1048
Flags: W
HStem: -8 61<236.045 402.877> 466 61<221.639 398.415> 499 20G<472.386 536>
VStem: 72 74<149.974 381.234> 462 74<-197 331 462 487.536> 478 58<493.464 519>
LayerCount: 2
Fore
SplineSet
487 98 m 1xd8
 471 57 425 -8 312 -8 c 1
 185 -8 72 87 72 258 c 1
 72 449 181 527 305 527 c 1
 420 527 471 468 491 421 c 1
 462 331 l 1
 462 409 400 466 312 466 c 1
 211 466 146 407 146 261 c 1
 146 128 222 53 316 53 c 1
 402 53 462 102 462 182 c 1
 487 98 l 1xd8
536 -197 m 1
 462 -197 l 1
 462 462 l 1xb8
 478 519 l 1
 536 519 l 1xb4
 536 -197 l 1
EndSplineSet
EndChar

StartChar: r
Encoding: 114 114 49
Width: 424
VWidth: 1048
Flags: W
HStem: 0 21G<96 169> 463 64<232.885 374.609> 499 20G<96 155.645>
VStem: 96 73<0 373 398 452.208> 96 57<464.792 519>
LayerCount: 2
Fore
SplineSet
308 527 m 5xd0
 339 527 360 523 385 515 c 1
 372 456 l 1
 354 461 334 463 312 463 c 5
 208 463 169 386 169 271 c 1
 145 373 l 1
 155 462 212 527 308 527 c 5xd0
96 519 m 1xa8
 153 519 l 1xa8
 169 398 l 1
 169 0 l 1
 96 0 l 1xb0
 96 519 l 1xa8
EndSplineSet
Validated: 5
Colour: ff0000
EndChar

StartChar: s
Encoding: 115 115 50
Width: 513
VWidth: 1048
Flags: W
HStem: -8 60<170.026 354.286> 467 60<174.338 342.903>
VStem: 57.8877 66.1123<93.8131 126.301> 68 74<335.198 437.781> 386 74<80.5489 184.471>
LayerCount: 2
Fore
SplineSet
258 527 m 1xd8
 353 527 417 492 453 413 c 1
 391.259765625 387.155273438 l 5
 369.360351562 438 326 467 260 467 c 1
 191 467 142 436 142 391 c 1xd8
 142 348 151.137695312 319.581054688 283 288 c 0
 384 263.810546875 460 219 460 133 c 1
 460 37 370 -8 257 -8 c 1
 152 -8 70.9140625 44.9072265625 57.8876953125 124.877929688 c 1
 124 138 l 1xe8
 135.46875 87.3984375 178 52 255 52 c 1
 340 52 386 78 386 134 c 1
 386 186 343 214 229 239 c 0
 113 265 68 317 68 387 c 1
 68 463 143 527 258 527 c 1xd8
EndSplineSet
EndChar

StartChar: t
Encoding: 116 116 51
Width: 418
VWidth: 1048
Flags: W
HStem: -8 59<226.839 362.13> 459 60<40 354>
VStem: 126 73<81.5567 635>
LayerCount: 2
Fore
SplineSet
276 -8 m 1
 157 -8 126 70 126 173 c 1
 126 635 l 1
 199 686 l 1
 199 173 l 1
 199 90 226 51 286 51 c 1
 313 51 337 57 361 71 c 1
 378 23 l 1
 353 4 320 -8 276 -8 c 1
40 459 m 1
 40 519 l 1
 354 519 l 1
 354 459 l 1
 40 459 l 1
EndSplineSet
Validated: 5
EndChar

StartChar: u
Encoding: 117 117 52
Width: 606
VWidth: 1048
Flags: W
HStem: -8 61<209.604 364.334> 0 21G<444.098 506> 499 20G<88 161 432 506>
VStem: 88 73<103.167 519> 432 74<45.264 82 119 519> 448 58<0 36.736>
AnchorPoint: "AccentCenter" 296 686 basechar 0
LayerCount: 2
Fore
SplineSet
506 0 m 5x74
 448 0 l 5x74
 432 82 l 5
 432 519 l 5
 506 519 l 5x78
 506 0 l 5x74
450 119 m 5
 421 46 369 -8 277 -8 c 4
 147 -8 88 85 88 194 c 5
 88 519 l 5
 161 519 l 5
 161 196 l 6
 161 106 200 53 283 53 c 4
 381 53 432 124 432 208 c 5xb8
 450 119 l 5
EndSplineSet
Validated: 5
EndChar

StartChar: v
Encoding: 118 118 53
Width: 564
VWidth: 1048
Flags: W
HStem: 0 21G<232.946 319.516> 499 20G<32 119.514 444.023 532>
LayerCount: 2
Fore
SplineSet
245 0 m 1
 452 519 l 1
 532 519 l 1
 311 0 l 1
 245 0 l 1
32 519 m 1
 112 519 l 1
 307 0 l 1
 241 0 l 1
 32 519 l 1
EndSplineSet
Validated: 5
Colour: ff0000
EndChar

StartChar: w
Encoding: 119 119 54
Width: 719
VWidth: 1048
Flags: W
HStem: 0 21G<170.26 262.746 450.605 542.971> 499 20G<52 129.277 588.414 667>
VStem: 52 73<488.755 519> 593 74<490.161 519>
LayerCount: 2
Fore
SplineSet
521 0 m 1
 456 0 l 1
 333 456 l 1
 398 456 l 1
 521 0 l 1
667 519 m 1
 538 0 l 1
 474 0 l 1
 593 519 l 1
 667 519 l 1
191 0 m 1
 322 456 l 1
 388 456 l 1
 257 0 l 1
 191 0 l 1
52 519 m 1
 125 519 l 1
 236 0 l 1
 175 0 l 1
 52 519 l 1
EndSplineSet
Validated: 5
Colour: ff0000
EndChar

StartChar: x
Encoding: 120 120 55
Width: 547
VWidth: 1048
Flags: W
HStem: 0 21G<40 143.032 404.059 507> 499 20G<40 143.211 403.881 507>
LayerCount: 2
Fore
SplineSet
40 519 m 1
 130 519 l 1
 274 301 l 1
 417 519 l 5
 507 519 l 5
 319 260 l 1
 507 0 l 5
 417 0 l 5
 274 221 l 1
 130 0 l 1
 40 0 l 1
 229 260 l 1
 40 519 l 1
EndSplineSet
Colour: ff0000
EndChar

StartChar: y
Encoding: 121 121 56
Width: 563
VWidth: 1048
Flags: W
HStem: -207 54<88.0886 111.61> 499 20G<40 128.812 424.073 515>
AnchorPoint: "AccentCenter" 287 686 basechar 0
LayerCount: 2
Fore
SplineSet
40 519 m 1
 121 519 l 1
 271 135 l 1
 285 85 l 1
 251 23 l 1
 40 519 l 1
56 -153 m 0
 136 -128 198 -90 238 -3 c 1
 257 41 l 1
 283 85 l 1
 298 135 l 1
 431 519 l 1
 515 519 l 1
 316 14 l 1
 257 -127 172 -182 93 -207 c 0
 56 -153 l 0
EndSplineSet
Validated: 5
Colour: ff0000
EndChar

StartChar: z
Encoding: 122 122 57
Width: 506
VWidth: 1048
Flags: W
HStem: 0 66<150 442> 454 65<67 436>
LayerCount: 2
Fore
SplineSet
350 454 m 5
 436 454 l 5
 150 66 l 1
 64 66 l 1
 350 454 l 5
64 66 m 1
 442 66 l 5
 442 0 l 5
 64 0 l 1
 64 66 l 1
67 519 m 1
 436 519 l 5
 436 454 l 5
 67 454 l 1
 67 519 l 1
EndSplineSet
EndChar

StartChar: braceleft
Encoding: 123 123 58
Width: 560
VWidth: 1048
Flags: W
HStem: -70 62<298.186 476> 757 61<306.266 476>
VStem: 170 74<44.0761 204.645 542.355 699.015>
LayerCount: 2
Fore
SplineSet
396 -8 m 1
 476 -8 l 1
 476 -70 l 1
 396 -70 l 1
 396 -8 l 1
396 818 m 1
 476 818 l 1
 476 757 l 1
 396 757 l 1
 396 818 l 1
77 404 m 1
 218 494 l 1
 200 523 170 580 170 620 c 0
 170 741 267 818 396 818 c 1
 396 757 l 1
 305 757 244 711 244 620 c 0
 244 578 264 536 286 506 c 1
 274 456 l 1
 137 373 l 1
 274 291 l 1
 286 241 l 1
 264 211 244 169 244 127 c 0
 244 26 305 -8 396 -8 c 1
 396 -70 l 1
 260 -70 170 -4 170 127 c 0
 170 167 200 224 218 253 c 1
 77 342 l 1
 77 404 l 1
EndSplineSet
Validated: 5
EndChar

StartChar: bar
Encoding: 124 124 59
Width: 235
VWidth: 1048
Flags: W
VStem: 77 74<-66 819>
LayerCount: 2
Fore
SplineSet
77 819 m 1
 151 819 l 1
 151 -66 l 1
 77 -66 l 1
 77 819 l 1
EndSplineSet
Validated: 1
EndChar

StartChar: braceright
Encoding: 125 125 60
Width: 560
VWidth: 1048
Flags: W
VStem: 309 74<44.0761 204.645 542.355 699.015>
LayerCount: 2
Fore
SplineSet
157 -8 m 1
 77 -8 l 1
 77 -70 l 1
 157 -70 l 1
 157 -8 l 1
157 818 m 5
 77 818 l 5
 77 757 l 5
 157 757 l 5
 157 818 l 5
476 404 m 1
 335 494 l 1
 353 523 383 580 383 620 c 0
 383 741 286 818 157 818 c 5
 157 757 l 5
 248 757 309 711 309 620 c 0
 309 578 289 536 267 506 c 1
 279 456 l 1
 416 373 l 1
 279 291 l 1
 267 241 l 1
 289 211 309 169 309 127 c 0
 309 26 248 -8 157 -8 c 1
 157 -70 l 1
 293 -70 383 -4 383 127 c 0
 383 167 353 224 335 253 c 1
 476 342 l 1
 476 404 l 1
EndSplineSet
Validated: 5
EndChar

StartChar: asciitilde
Encoding: 126 126 61
Width: 669
VWidth: 1048
Flags: W
HStem: 225 66<378.297 484.61> 321 65<179 294.228>
LayerCount: 2
Fore
SplineSet
77 265 m 5
 77 265 117 386 249 386 c 4
 324 386 368 291 439 291 c 4
 497 291 525 384 525 384 c 5
 585 343 l 29
 585 343 537 225 431 225 c 4
 348 225 302 321 237 321 c 4
 162 321 128 225 128 225 c 5
 77 265 l 5
EndSplineSet
Validated: 1
EndChar

StartChar: exclam
Encoding: 33 33 62
Width: 298
VWidth: 1048
Flags: W
HStem: -8 121<89.4534 185.14>
VStem: 77 121<4.83948 99.7768> 92 90<297.352 757> 100 74<244 703.648>
LayerCount: 2
Fore
SplineSet
92 757 m 1xa0
 182 757 l 5xa0
 174 244 l 1
 100 244 l 1x90
 92 757 l 1xa0
77 52 m 0xc0
 77 85 100 113 137 113 c 0
 174 113 198 85 198 52 c 0
 198 19 174 -8 137 -8 c 0
 100 -8 77 19 77 52 c 0xc0
EndSplineSet
Validated: 1
EndChar

StartChar: quotedbl
Encoding: 34 34 63
Width: 597
VWidth: 1048
Flags: W
HStem: 510 52<99.416 119.789 329.278 349.789> 698 121<131.453 184.116 360.86 414.11>
VStem: 205 35<726 749.163> 434 35<726 750.54>
LayerCount: 2
Fore
SplineSet
409 819 m 5
 468 819 497 772 497 718 c 5
 497 617 403 528 333 510 c 5
 306 562 l 5
 373 582 434 657 434 723 c 5
 415 796 l 5
 409 819 l 5
348 759 m 4
 348 792 372 819 409 819 c 4
 446 819 469 792 469 759 c 4
 469 726 446 698 409 698 c 4
 372 698 348 726 348 759 c 4
179 819 m 5
 238 819 267 772 267 718 c 5
 267 617 173 528 103 510 c 5
 77 562 l 5
 144 582 205 657 205 723 c 5
 185 796 l 5
 179 819 l 5
119 759 m 4
 119 792 142 819 179 819 c 4
 216 819 240 792 240 759 c 4
 240 726 216 698 179 698 c 4
 142 698 119 726 119 759 c 4
EndSplineSet
Validated: 5
EndChar

StartChar: numbersign
Encoding: 35 35 64
Width: 710
VWidth: 1048
Flags: W
HStem: 0 21G<93 176.635 311 394.635> 209 61<77 609> 458 61<77 609>
LayerCount: 2
Fore
SplineSet
93 0 m 1
 297 724 l 1
 375 724 l 1
 171 0 l 1
 93 0 l 1
311 0 m 1
 515 724 l 1
 593 724 l 1
 389 0 l 1
 311 0 l 1
77 270 m 5
 609 270 l 5
 609 209 l 5
 77 209 l 5
 77 270 l 5
77 519 m 1
 609 519 l 1
 609 458 l 1
 77 458 l 1
 77 519 l 1
EndSplineSet
Validated: 5
EndChar

StartChar: dollar
Encoding: 36 36 65
Width: 600
VWidth: 1048
Flags: W
HStem: -8 61<200.03 408.403> 653 62<212.949 402.878>
VStem: 83 71<464.474 601.993> 269 73<-139 863> 466 73<104.04 246.739>
LayerCount: 2
Fore
SplineSet
314 715 m 5
 407 715 498 669 529 597 c 5
 466 568 l 5
 443 621 380 653 309 653 c 5
 213 653 154 605 154 543 c 5
 154 453 204 425 325 385 c 4
 452 343 539 291 539 171 c 5
 539 48 429 -8 303 -8 c 5
 193 -8 89 46 53 123 c 5
 119 154 l 5
 141 93 221 53 303 53 c 5
 404 53 466 93 466 170 c 5
 466 278 386 297 262 338 c 4
 152 375 83 432 83 542 c 5
 83 647 187 715 314 715 c 5
269 863 m 5
 342 863 l 5
 342 -139 l 5
 269 -139 l 5
 269 863 l 5
EndSplineSet
Validated: 5
EndChar

StartChar: percent
Encoding: 37 37 66
Width: 726
VWidth: 1048
Flags: W
HStem: -8 65<452.595 535.366> 254 65<452.388 535.366> 429 66<165.319 248.366> 691 66<167.223 248.366>
VStem: 77 73<510.484 675.603> 265 74<508.294 675.623> 364 72<73.1314 237.857> 552 74<70.9301 238.507>
LayerCount: 2
Fore
SplineSet
208 691 m 24
 163 691 150 647 150 592 c 0
 150 535 164 495 208 495 c 24
 252 495 265 536 265 593 c 0
 265 647 252 691 208 691 c 24
208 757 m 24
 290 757 339 691 339 593 c 0
 339 495 290 429 208 429 c 24
 126 429 77 495 77 593 c 0
 77 691 126 757 208 757 c 24
131 -38 m 1
 494 786 l 5
 560 762 l 5
 198 -62 l 1
 131 -38 l 1
495 254 m 24
 450 254 436 210 436 155 c 0
 436 98 451 57 495 57 c 24
 539 57 552 99 552 156 c 0
 552 210 539 254 495 254 c 24
495 319 m 24
 577 319 626 254 626 156 c 0
 626 58 577 -8 495 -8 c 24
 413 -8 364 58 364 156 c 0
 364 254 413 319 495 319 c 24
EndSplineSet
Validated: 1
EndChar

StartChar: ampersand
Encoding: 38 38 67
Width: 762
VWidth: 1048
Flags: W
HStem: -8 61<241.488 434.23> 0 21G<572.527 687> 671 61<290.154 436.346>
VStem: 84 74<133.667 314.238> 173 74<486.257 631.474>
LayerCount: 2
Fore
SplineSet
600 386 m 1xb8
 671 368 l 1
 652 293 l 1
 603 105 502 -8 347 -8 c 1
 194 -8 84 69 84 227 c 1
 84 333 154 410 248 447 c 1
 279 402 l 1
 225 376 158 324 158 227 c 1
 158 113 226 53 347 53 c 1
 460 53 536 145 580 312 c 1
 600 386 l 1xb8
357 732 m 1
 469 732 509 686 551 627 c 1
 494 587 l 1
 466 628 430 671 360 671 c 1
 290 671 247 621 247 574 c 1
 247 505 278 466 320 418 c 1
 687 0 l 1
 590 0 l 1x78
 265 372 l 1
 224 418 173 482 173 567 c 1
 173 651 249 732 357 732 c 1
EndSplineSet
Validated: 5
Colour: ff0000
EndChar

StartChar: quotesingle
Encoding: 39 39 68
Width: 137
VWidth: 1048
Flags: W
HStem: 527 241<40 97>
VStem: 32 73<552.064 768> 40 57<527 742.936>
LayerCount: 2
Fore
SplineSet
105 768 m 1xc0
 97 527 l 1
 40 527 l 1xa0
 32 768 l 1
 105 768 l 1xc0
EndSplineSet
EndChar

StartChar: parenleft
Encoding: 40 40 69
Width: 349
VWidth: 1048
Flags: W
HStem: 748 20G<180 317>
VStem: 64 74<211.407 530.486>
LayerCount: 2
Fore
SplineSet
236 768 m 5
 317 768 l 5
 234 707 138 581 138 368 c 4
 138 160 242 31 317 -35 c 5
 231 -35 l 5
 126 50 64 220 64 368 c 4
 64 542 124 677 236 768 c 5
EndSplineSet
EndChar

StartChar: parenright
Encoding: 41 41 70
Width: 349
VWidth: 1048
Flags: HW
VStem: 260 74<218.098 524.528>
LayerCount: 2
Fore
SplineSet
113 -35 m 1
 32 -35 l 1
 115 26 211 152 211 365 c 0
 211 573 107 702 32 768 c 1
 118 768 l 1
 223 683 285 513 285 365 c 0
 285 191 225 56 113 -35 c 1
EndSplineSet
EndChar

StartChar: asterisk
Encoding: 42 42 71
Width: 550
VWidth: 1048
Flags: W
HStem: 687 20G<89.9683 157.875 368.75 436.349>
VStem: 230 66<657.338 806>
LayerCount: 2
Fore
SplineSet
129 488 m 1
 188 573 l 1
 247 633 l 1
 280 608 l 1
 243 535 l 1
 182 451 l 1
 129 488 l 1
397 488 m 1
 344 451 l 1
 284 535 l 1
 247 608 l 1
 280 633 l 1
 338 573 l 1
 397 488 l 1
96 707 m 1
 195 675 l 1
 269 638 l 1
 257 599 l 1
 175 612 l 1
 77 644 l 1
 96 707 l 1
430 707 m 1
 450 644 l 1
 351 612 l 1
 269 599 l 1
 257 638 l 1
 332 675 l 1
 430 707 l 1
230 806 m 1
 296 806 l 1
 296 702 l 1
 284 621 l 1
 243 621 l 1
 230 702 l 1
 230 806 l 1
EndSplineSet
Validated: 5
EndChar

StartChar: plus
Encoding: 43 43 72
Width: 597
VWidth: 1048
Flags: W
HStem: 254 65<77 497>
VStem: 253 65<74 500>
LayerCount: 2
Fore
SplineSet
253 500 m 5
 318 500 l 5
 318 74 l 5
 253 74 l 5
 253 500 l 5
77 319 m 5
 497 319 l 5
 497 254 l 5
 77 254 l 5
 77 319 l 5
EndSplineSet
Validated: 5
EndChar

StartChar: comma
Encoding: 44 44 73
Width: 198
VWidth: 1048
Flags: W
HStem: -197 290
VStem: 44 72<-83.0046 93>
LayerCount: 2
Fore
SplineSet
44 93 m 5
 116 93 l 5
 116 16 l 5
 44 16 l 5
 44 93 l 5
116 16 m 5
 116 -85 65 -163 -3 -197 c 5
 -32 -146 l 5
 18 -116 44 -50 44 16 c 5
 116 16 l 5
EndSplineSet
EndChar

StartChar: hyphen
Encoding: 45 45 74
Width: 450
VWidth: 1048
Flags: W
HStem: 254 65<77 375>
VStem: 77 298<254 319>
LayerCount: 2
Fore
SplineSet
77 319 m 1
 375 319 l 1
 375 254 l 1
 77 254 l 1
 77 319 l 1
EndSplineSet
Validated: 1
EndChar

StartChar: period
Encoding: 46 46 75
Width: 265
VWidth: 1048
Flags: W
HStem: -8 121<84.4534 180.14>
VStem: 72 121<4.83948 99.7768>
LayerCount: 2
Fore
SplineSet
72 52 m 4
 72 85 95 113 132 113 c 4
 169 113 193 85 193 52 c 4
 193 19 169 -8 132 -8 c 4
 95 -8 72 19 72 52 c 4
EndSplineSet
EndChar

StartChar: slash
Encoding: 47 47 76
Width: 420
VWidth: 1048
Flags: W
HStem: 748 20G<333.507 420>
LayerCount: 2
Fore
SplineSet
1 -35 m 1
 342 768 l 1
 420 768 l 1
 79 -35 l 1
 1 -35 l 1
EndSplineSet
EndChar

StartChar: zero
Encoding: 48 48 77
Width: 550
VWidth: 1048
Flags: W
HStem: -7 60<197.946 345.476> 655 60<197.076 351.608>
VStem: 44 74<197.434 545.491> 432 75<172.96 525.314>
LayerCount: 2
Fore
SplineSet
80 210 m 1
 422 567 l 1
 460 511 l 1
 117 154 l 1
 80 210 l 1
118 358 m 0
 118 159 160 53 273 53 c 0
 390 53 432 168 432 360 c 0
 432 549 392 655 274 655 c 0
 157 655 118 551 118 358 c 0
44 357 m 0
 44 589 109 715 274 715 c 0
 440 715 507 587 507 360 c 0
 507 131 439 -7 273 -7 c 0
 113 -7 44 121 44 357 c 0
EndSplineSet
EndChar

StartChar: one
Encoding: 49 49 78
Width: 550
VWidth: 1048
Flags: W
HStem: 0 64<60 482> 687 20G<206.294 315>
VStem: 241 74<0 635>
LayerCount: 2
Fore
SplineSet
60 64 m 1
 482 64 l 1
 482 0 l 1
 60 0 l 1
 60 64 l 1
241 0 m 1
 241 635 l 1
 78 502 l 1
 42 554 l 1
 231 707 l 1
 315 707 l 1
 315 0 l 1
 241 0 l 1
EndSplineSet
Validated: 5
Colour: ff0000
EndChar

StartChar: two
Encoding: 50 50 79
Width: 550
VWidth: 1048
Flags: W
HStem: 0 68<134 478> 654 61<168.935 337.324>
VStem: 45.2188 60.6182<562.234 591.408> 48 86<68 125.867> 396 74<435.83 596.404>
LayerCount: 2
Fore
SplineSet
48 32 m 1xd8
 48 104 87 209 255 327 c 0
 349 393 396 434 396 522 c 0
 396 600 339 654 254 654 c 0
 170 654 121.700195312 604.318359375 105.836914062 543.750976562 c 1
 45.21875 564.712890625 l 1xe8
 77 670 158 715 252 715 c 0
 388 715 470 627 470 518 c 0
 470 392 392 338 286 264 c 0
 157 174 134 113 134 68 c 1
 478 68 l 1
 478 0 l 1
 48 0 l 1
 48 32 l 1xd8
EndSplineSet
Validated: 1
EndChar

StartChar: three
Encoding: 51 51 80
Width: 550
VWidth: 1048
Flags: W
HStem: -8 61<160.536 349.197> 339 66<183 325.301> 654 61<159.447 328.885>
VStem: 380 73<459.752 606.18> 410 74<114.186 283.518>
LayerCount: 2
Fore
SplineSet
46 587 m 1xf0
 78.4782608696 670 150 715 234 715 c 1
 378 715 453 644 453 535 c 1xf0
 453 450 411 404 353 374 c 1
 421 359 484 301 484 204 c 1
 484 69 399 -8 247 -8 c 1
 128 -8 50 64 24 143 c 1
 90 172 l 1
 106 108 159 53 247 53 c 1
 351 53 409 94 410 206 c 1xe8
 410 299 349 339 245 339 c 9
 183 339 l 25
 183 405 l 25
 248 405 l 17
 317 405 380 451 380 534 c 1
 380 620 318 654 237 654 c 1
 166 654 132 620 112 562 c 5
 46 587 l 1xf0
EndSplineSet
Validated: 1
EndChar

StartChar: four
Encoding: 52 52 81
Width: 550
VWidth: 1048
Flags: W
HStem: 0 21G<328 401> 167 65<106 504> 687 20G<315.495 401>
VStem: 328 73<0 707>
LayerCount: 2
Fore
SplineSet
328 707 m 1
 383 669 l 1
 106 232 l 1
 31 232 l 1
 328 707 l 1
31 232 m 1
 504 232 l 5
 504 167 l 5
 31 167 l 1
 31 232 l 1
328 707 m 1
 401 707 l 1
 401 0 l 1
 328 0 l 1
 328 707 l 1
EndSplineSet
Validated: 5
EndChar

StartChar: five
Encoding: 53 53 82
Width: 550
VWidth: 1048
Flags: W
HStem: -8 60<135.628 331.583> 383 64<122 330.396> 641 66<94 444>
VStem: 408 74<128.858 308.154>
LayerCount: 2
Fore
SplineSet
236 447 m 1
 360 447 482 375 482 224 c 4
 482 76 370 -8 240 -8 c 1
 112 -8 61 40 26 91 c 1
 78 131 l 1
 110 82 149 52 240 52 c 1
 325 52 408 98 408 220 c 4
 408 330 336 383 234 383 c 1
 138 383 l 1
 122 447 l 1
 236 447 l 1
94 707 m 1
 164 707 l 1
 138 383 l 1
 68 383 l 1
 94 707 l 1
94 707 m 1
 444 707 l 1
 444 641 l 1
 94 641 l 1
 94 707 l 1
EndSplineSet
Validated: 5
EndChar

StartChar: six
Encoding: 54 54 83
Width: 550
VWidth: 1048
Flags: W
HStem: -8 61<185.861 359.048> 432 63<188.481 356.694> 662 53<340.106 369.246>
VStem: 46 72<129.286 355.643> 423 74<123.798 357.555>
LayerCount: 2
Fore
SplineSet
274 432 m 0
 170 432 118 358 118 255 c 0
 118 123 161 53 274 53 c 0
 388 53 423 132 423 246 c 4
 423 351 385 432 274 432 c 0
390 662 m 1
 322 638 172 560 142 435 c 1
 179 484 237 495 284 495 c 0
 424 495 497 403 497 246 c 4
 497 91 418 -8 274 -8 c 0
 113 -8 46 98 46 253 c 0
 46 341 49 446 154 580 c 0
 208 649 294 692 366 715 c 1
 390 662 l 1
EndSplineSet
Validated: 1
EndChar

StartChar: seven
Encoding: 55 55 84
Width: 550
VWidth: 1048
Flags: W
HStem: 0 21G<169 252.523> 519 21G<46 118> 646 52<46 118> 687 20G<46 488>
VStem: 46 72<519 646>
LayerCount: 2
Fore
SplineSet
46 698 m 1xe8
 118 698 l 1
 118 519 l 1
 46 519 l 1
 46 698 l 1xe8
46 707 m 1xd8
 488 707 l 1xd8
 488 646 l 1
 46 646 l 1xe8
 46 707 l 1xd8
410 646 m 5xe8
 488 646 l 1
 245 0 l 1
 169 0 l 5
 410 646 l 5xe8
EndSplineSet
Validated: 5
Colour: ff0000
EndChar

StartChar: eight
Encoding: 56 56 85
Width: 550
VWidth: 1048
Flags: W
HStem: -7 61<181.928 371.387> 339 61<162 386> 654 61<192.482 358.11>
VStem: 48 74<113.548 276.87> 64 73<449.569 599.703> 412 73<449.691 600.056> 428 74<109.131 272.062>
LayerCount: 2
Fore
SplineSet
274 339 m 4xf2
 181 339 122 285 122 200 c 0
 122 86 195 54 274 54 c 0
 357 54 428 83 428 192 c 0
 428 279 369 339 274 339 c 4xf2
274 654 m 24
 196 654 137 611 137 520 c 0
 137 444 190 400 274 400 c 4
 359 400 412 444 412 521 c 0xec
 412 612 352 654 274 654 c 24
48 192 m 0xf2
 48 326 154 393 274 393 c 4
 394 393 502 326 502 192 c 0
 502 47 386 -7 274 -7 c 0
 162 -7 48 47 48 192 c 0xf2
64 521 m 0xec
 64 658 162 715 274 715 c 0
 386 715 485 658 485 521 c 0
 485 409 386 346 274 346 c 4
 162 346 64 409 64 521 c 0xec
EndSplineSet
Validated: 5
EndChar

StartChar: nine
Encoding: 57 57 86
Width: 550
VWidth: 1048
Flags: W
HStem: -8 21G<163.186 207.5> 246 62<186.946 357.936> 654 61<183.548 358.258>
VStem: 48 74<376.071 588.932> 422 72<372.333 584.024>
LayerCount: 2
Fore
SplineSet
270 308 m 0
 374 308 422 368 422 471 c 0
 422 593 375 654 270 654 c 4
 156 654 122 583 122 480 c 0
 122 375 167 308 270 308 c 0
260 246 m 0
 130 246 48 333 48 480 c 0
 48 611 126 715 270 715 c 4
 422 715 494 604 494 473 c 0
 494 385 493 272 390 141 c 0
 336 72 243 20 172 -8 c 1
 146 51 l 1
 214 83 277 110 318 155 c 0
 362 203 389 254 402 309 c 1
 361 252 307 246 260 246 c 0
EndSplineSet
Validated: 1
EndChar

StartChar: colon
Encoding: 58 58 87
Width: 313
VWidth: 1048
Flags: W
HStem: -8 121<108.453 204.14> 406 121<108.453 204.14>
VStem: 96 121<4.83948 99.7768 418.839 513.777>
LayerCount: 2
Fore
SplineSet
96 466 m 4
 96 499 119 527 156 527 c 4
 193 527 217 499 217 466 c 4
 217 433 193 406 156 406 c 4
 119 406 96 433 96 466 c 4
96 52 m 0
 96 85 119 113 156 113 c 0
 193 113 217 85 217 52 c 0
 217 19 193 -8 156 -8 c 0
 119 -8 96 19 96 52 c 0
EndSplineSet
Validated: 1
EndChar

StartChar: semicolon
Encoding: 59 59 88
Width: 388
VWidth: 1048
Flags: W
HStem: 406 121<117.453 213.14>
VStem: 105 121<418.839 513.777> 128.051 71.6699<-8.06875 101.865>
LayerCount: 2
Fore
SplineSet
199.720703125 101.17578125 m 5xa0
 187.278320312 -28.2275390625 139 -138 49 -197 c 5
 12 -154 l 5
 81 -94 124 4 128.05078125 108.067382812 c 5
 199.720703125 101.17578125 l 5xa0
105 466 m 4xc0
 105 499 128 527 165 527 c 4
 202 527 226 499 226 466 c 4
 226 433 202 406 165 406 c 4
 128 406 105 433 105 466 c 4xc0
EndSplineSet
EndChar

StartChar: less
Encoding: 60 60 89
Width: 622
VWidth: 1048
Flags: W
LayerCount: 2
Fore
SplineSet
77 328 m 5
 493 504 l 5
 521 442 l 5
 77 258 l 5
 77 328 l 5
77 299 m 5
 521 115 l 5
 493 53 l 5
 77 229 l 5
 77 299 l 5
EndSplineSet
Validated: 5
EndChar

StartChar: equal
Encoding: 61 61 90
Width: 597
VWidth: 1048
Flags: W
HStem: 156 65<77 497> 352 66<77 497>
LayerCount: 2
Fore
SplineSet
77 418 m 5
 497 418 l 5
 497 352 l 5
 77 352 l 5
 77 418 l 5
77 221 m 5
 497 221 l 5
 497 156 l 5
 77 156 l 5
 77 221 l 5
EndSplineSet
Validated: 1
EndChar

StartChar: greater
Encoding: 62 62 91
Width: 622
VWidth: 1048
Flags: W
LayerCount: 2
Fore
SplineSet
521 328 m 5
 521 258 l 5
 77 442 l 5
 105 504 l 5
 521 328 l 5
521 299 m 5
 521 229 l 5
 105 53 l 5
 77 115 l 5
 521 299 l 5
EndSplineSet
Validated: 5
EndChar

StartChar: question
Encoding: 63 63 92
Width: 517
VWidth: 1048
Flags: W
HStem: -8 121<190.453 286.14> 670 62<145.842 324.406>
VStem: 178 121<4.83948 99.7768> 191 64<189.701 316.882> 374 72<472.509 621.639>
LayerCount: 2
Fore
SplineSet
41 640 m 1xd8
 82 686 140 732 235 732 c 1
 364 732 446 667 446 544 c 1
 445 446 358 390 297 338 c 0
 256 303 255 272 255 234 c 1
 255 217 257 204 260 190 c 1
 197 182 l 1
 193 204 191 223 191 241 c 1
 191 316 227 362 274 397 c 0
 326 436 374 478 374 540 c 1
 374 634 319 670 235 670 c 1
 175 670 125 646 86 594 c 1
 41 640 l 1xd8
178 52 m 0xe8
 178 85 201 113 238 113 c 0
 275 113 299 85 299 52 c 0
 299 19 275 -8 238 -8 c 0
 201 -8 178 19 178 52 c 0xe8
EndSplineSet
Validated: 1
EndChar

StartChar: at
Encoding: 64 64 93
Width: 954
Flags: HW
HStem: -96 64<365.844 644.443> -20 20G<639.5 667> 131 64<401.099 543.946> 513 64<402.509 548.717> 736 64<355.435 612.139>
VStem: 48 72<222.476 500.251> 274 72<255.244 450.759> 606 72<245 370 498 528.912> 622 56<536.088 567> 834 72<272.007 517.889>
LayerCount: 2
Fore
SplineSet
667 0 m 1xfe40
 667 -71 l 1
 614 -90 561 -96 492 -96 c 1
 243 -96 48 68 48 364 c 1
 48 655 269 800 484 800 c 1
 724 800 906 634 906 387 c 1
 906 282 868 194 811 139 c 1
 745 131 l 1
 596 229 l 1
 646 280 l 1
 771 195 l 1
 802 237 834 308 834 390 c 1
 834 606 677 736 484 736 c 1
 298 736 120 611 120 364 c 1
 120 130 278 -32 496 -32 c 1
 567 -32 612 -26 667 0 c 1xfe40
  Spiro
    667 0 v
    667 -71 v
    613.462 -85.9148 o
    556.199 -93.7455 o
    492 -96 v
    266.42 -42.6242 o
    107.663 113.39 o
    48 364 v
    113.137 606.177 o
    275.601 751.726 o
    484 800 v
    699.886 747.916 o
    850.033 603.668 o
    906 387 v
    894.06 288.351 o
    860.921 204.332 o
    811 139 v
    745 131 v
    596 229 v
    646 280 v
    771 195 v
    801.083 245.941 o
    824.573 312.406 o
    834 390 v
    786.239 575.55 o
    660.363 694.378 o
    484 736 v
    307.125 694.527 o
    172.937 570.057 o
    120 364 v
    168.943 157.509 o
    301.797 18.5687 o
    496 -32 v
    559.609 -29.487 o
    614.052 -19.8376 o
    0 0 z
  EndSpiro
622 567 m 1xfec0
 678 567 l 1xfec0
 678 245 l 1
 606 242 l 1
 606 498 l 1xff40
 622 567 l 1xfec0
  Spiro
    622 567 v
    678 567 v
    678 245 v
    606 242 v
    606 498 v
    0 0 z
  EndSpiro
675 370 m 1
 656 209 570 131 473 131 c 0
 358 131 274 213 274 357 c 0
 274 482 358 577 473 577 c 0
 569 577 623 514 675 370 c 1
  Spiro
    675 370 v
    635.798 236.588 o
    564.176 157.133 o
    473 131 o
    370.385 157.54 o
    299.987 234.508 o
    274 357 o
    299.987 469.495 o
    370.385 547.797 o
    473 577 o
    556.409 555.377 o
    620.91 487.575 o
    0 0 z
  EndSpiro
475 513 m 0
 397 513 346 454 346 359 c 0
 346 247 397 195 474 195 c 0
 559 195 606 267 606 360 c 0xff40
 606 453 555 513 475 513 c 0
  Spiro
    475 513 o
    406.946 494.222 o
    362.08 441.08 o
    346 359 o
    362.043 266.777 o
    406.649 212.594 o
    474 195 o
    545.941 217.069 o
    590.697 275.962 o
    606 360 o
    589.846 440.932 o
    544.46 494.037 o
    0 0 z
  EndSpiro
EndSplineSet
EndChar

StartChar: gravecomb
Encoding: 768 768 95
Width: 0
VWidth: 1048
Flags: W
HStem: 745 185
VStem: -123 247
AnchorPoint: "AccentCenter" 4 840 mark 0
LayerCount: 2
Fore
SplineSet
90 745 m 5
 -123 869 l 5
 -80 930 l 5
 124 794 l 5
 90 745 l 5
EndSplineSet
Validated: 1
EndChar

StartChar: acutecomb
Encoding: 769 769 96
Width: 0
VWidth: 1048
Flags: W
HStem: 745 185
VStem: -123 247
AnchorPoint: "AccentCenter" 6 840 mark 0
LayerCount: 2
Fore
SplineSet
-90 745 m 1
 -123 794 l 1
 80 930 l 1
 124 869 l 1
 -90 745 l 1
EndSplineSet
Validated: 1
EndChar

StartChar: uni0302
Encoding: 770 770 97
Width: 0
VWidth: 1048
Flags: W
HStem: 745 185
VStem: -164 328
AnchorPoint: "AccentCenter" 0 840 mark 0
LayerCount: 2
Fore
SplineSet
-164 794 m 29
 -33 930 l 5
 33 930 l 29
 164 794 l 29
 123 745 l 29
 0 865 l 29
 -123 745 l 29
 -164 794 l 29
EndSplineSet
Validated: 1
EndChar

StartChar: tildecomb
Encoding: 771 771 98
Width: 0
VWidth: 1048
Flags: W
HStem: 768 21G<-179.5 -154> 777 65<31.7338 126.19> 847 66<-125.06 -16.4801>
AnchorPoint: "AccentCenter" 0 840 mark 0
LayerCount: 2
Fore
SplineSet
-205 808 m 5xa0
 -205 808 -181 913 -63 913 c 4
 -2 913 33 842 84 842 c 4
 142 842 145 919 145 919 c 5
 205 878 l 5
 205 878 179 777 82 777 c 4x60
 7 777 -12 847 -70 847 c 4
 -145 847 -154 768 -154 768 c 5
 -205 808 l 5xa0
EndSplineSet
Validated: 1
EndChar

StartChar: uni0304
Encoding: 772 772 99
Width: 0
VWidth: 1048
Flags: W
HStem: 805 104<-147.146 -61.5153 61.5153 147.146>
VStem: -157 105<814.515 899.485> 52 105<814.515 899.485>
AnchorPoint: "AccentCenter" 0 860 mark 0
LayerCount: 2
Fore
SplineSet
52 857 m 0
 52 886 75 909 104 909 c 0
 133 909 157 886 157 857 c 0
 157 828 133 805 104 805 c 0
 75 805 52 828 52 857 c 0
-157 857 m 0
 -157 886 -133 909 -104 909 c 0
 -75 909 -52 886 -52 857 c 0
 -52 828 -75 805 -104 805 c 0
 -133 805 -157 828 -157 857 c 0
EndSplineSet
Validated: 1
EndChar

StartChar: uni030A
Encoding: 778 778 100
Width: 0
VWidth: 1048
Flags: W
HStem: 743 49<-40.634 40.634> 888 49<-40.634 40.634>
VStem: -97 49<798.991 881.009> 48 49<798.991 881.009>
AnchorPoint: "Ring" 0 840 mark 0
LayerCount: 2
Fore
SplineSet
-48 840 m 4
 -48 811 -27 792 0 792 c 4
 27 792 48 811 48 840 c 4
 48 869 27 888 0 888 c 4
 -27 888 -48 869 -48 840 c 4
-97 840 m 4
 -97 896 -54 937 0 937 c 4
 54 937 97 896 97 840 c 4
 97 784 54 743 0 743 c 4
 -54 743 -97 784 -97 840 c 4
EndSplineSet
Validated: 1
EndChar

StartChar: uni0308
Encoding: 776 776 101
Width: 0
VWidth: 1048
Flags: W
HStem: 805 104<-147.146 -61.5153 61.5153 147.146>
VStem: -157 105<814.515 899.485> 52 105<814.515 899.485>
AnchorPoint: "AccentCenter" 0 860 mark 0
LayerCount: 2
Fore
SplineSet
52 857 m 0
 52 886 75 909 104 909 c 0
 133 909 157 886 157 857 c 0
 157 828 133 805 104 805 c 0
 75 805 52 828 52 857 c 0
-157 857 m 0
 -157 886 -133 909 -104 909 c 0
 -75 909 -52 886 -52 857 c 0
 -52 828 -75 805 -104 805 c 0
 -133 805 -157 828 -157 857 c 0
EndSplineSet
Validated: 1
EndChar

StartChar: dotlessi
Encoding: 305 305 116
Width: 248
VWidth: 1048
Flags: W
HStem: 0 21G<86 160> 499 20G<86 160>
VStem: 86 74<0 519>
AnchorPoint: "AccentCenter" 120 686 basechar 0
LayerCount: 2
Fore
SplineSet
86 0 m 1
 86 519 l 1
 160 519 l 1
 160 0 l 1
 86 0 l 1
EndSplineSet
Validated: 1
EndChar

StartChar: sterling
Encoding: 163 163 153
Width: 630
Flags: W
HStem: 0 64<70 543> 315 64<42 432> 655 60<263.218 437.493>
VStem: 128 72<427.944 597.314> 203 72<172.273 314.364>
LayerCount: 2
Back
SplineSet
54 64 m 1
 589 64 l 1
 589 0 l 1
 54 0 l 1
 54 64 l 1
EndSplineSet
Fore
SplineSet
42 379 m 1
 432 379 l 1
 432 315 l 1
 42 315 l 1
 42 379 l 1
70 64 m 1
 543 64 l 1
 543 0 l 1
 70 0 l 1
 70 64 l 1
128 527 m 1
 128 615 195.279958686 715 345 715 c 0
 476 715 524 646 559 598 c 1
 508 558 l 0
 464 624 426 655 342 655 c 1
 270 655 200 606 200 527 c 0
 200 417 275 371 275 265 c 0
 275 147 212 92 164 64 c 1
 70 64 l 1
 70 80 l 1
 70 80 203 113 203 267 c 0
 203 353 128 420 128 527 c 1
EndSplineSet
Validated: 5
EndChar
